<svg width="128" height="128" viewBox="0 0 128 128" fill="none" xmlns="http://www.w3.org/2000/svg">
<path d="M108.8 0H19.2C8.59613 0 0 8.59613 0 19.2V108.8C0 119.404 8.59613 128 19.2 128H108.8C119.404 128 128 119.404 128 108.8V19.2C128 8.59613 119.404 0 108.8 0Z" fill="#F5F0EA"/>
<path opacity="0.5" d="M94.4001 92H32.6001V99H94.4001V92Z" fill="#5C686D"/>
<path d="M39.4668 78H32.6001V92H39.4668V78Z" fill="#DE886D"/>
<path d="M53.2002 78H46.3335V92H53.2002V78Z" fill="#DE886D"/>
<path d="M80.6667 78H73.8V92H80.6667V78Z" fill="#DE886D"/>
<path d="M94.4001 78H87.5334V92H94.4001V78Z" fill="#DE886D"/>
<path d="M101.267 29H25.7334V78H101.267V29Z" fill="#DE886D"/>
<path d="M25.7333 50H12V64H25.7333V50Z" fill="#DE886D"/>
<path d="M115 50H101.267V64H115V50Z" fill="#DE886D"/>
<path opacity="0.6" d="M63.294 59.391L59.4094 60.4494L53.5826 57.2742L49.698 51.9822L51.6403 45.6318L55.5249 41.3982L61.3517 40.3398H67.1786L73.0054 42.4566L75.9189 47.7486L76.89 54.099L73.0054 60.4494M49.698 51.9822L57.4671 49.8654M51.6403 45.6318L57.4671 49.8654M55.5249 41.3982L57.4671 49.8654M55.5249 41.3982L63.294 45.6318M61.3517 40.3398L63.294 45.6318M61.3517 40.3398L69.1209 46.6902M67.1786 40.3398L69.1209 46.6902M73.0054 42.4566L69.1209 46.6902M75.9189 47.7486L69.1209 46.6902M75.9189 47.7486L69.1209 53.0406M76.89 54.099L69.1209 53.0406M73.0054 60.4494L71.0631 66.7998L68.1497 61.5078M73.0054 60.4494L69.1209 53.0406M68.1497 61.5078L63.294 59.391M68.1497 61.5078L69.1209 53.0406M63.294 59.391V51.9822M59.4094 60.4494V55.1574M53.5826 57.2742L59.4094 55.1574M57.4671 49.8654L63.294 45.6318M57.4671 49.8654L59.4094 55.1574M63.294 45.6318L69.1209 46.6902M69.1209 46.6902L63.294 51.9822M69.1209 53.0406L63.294 51.9822M63.294 51.9822L59.4094 55.1574" stroke="#F3F3F3" stroke-width="1.2" stroke-linejoin="round"/>
</svg>
