<svg width="128" height="128" viewBox="0 0 128 128" fill="none" xmlns="http://www.w3.org/2000/svg">
<path opacity="0.5" d="M102.4 98.2998H25.6V107H102.4V98.2998Z" fill="#F3F3F3"/>
<path d="M34.1333 80.9004H25.6V98.3004H34.1333V80.9004Z" fill="#DE886D"/>
<path d="M51.2 80.9004H42.6666V98.3004H51.2V80.9004Z" fill="#DE886D"/>
<path d="M85.3333 80.9004H76.7999V98.3004H85.3333V80.9004Z" fill="#DE886D"/>
<path d="M102.4 80.9004H93.8667V98.3004H102.4V80.9004Z" fill="#DE886D"/>
<path d="M110.933 20H17.0667V80.9H110.933V20Z" fill="#DE886D"/>
<path d="M17.0667 46.0996H0V63.4996H17.0667V46.0996Z" fill="#DE886D"/>
<path d="M128 46.0996H110.933V63.4996H128V46.0996Z" fill="#DE886D"/>
<path opacity="0.6" d="M63.744 57.7717L58.9166 59.0871L51.6755 55.1408L46.848 48.5636L49.2617 40.6709L54.0892 35.4092L61.3303 34.0938H68.5715L75.8126 36.7246L79.4332 43.3018L80.64 51.1945L75.8126 59.0871M46.848 48.5636L56.5029 45.9327M49.2617 40.6709L56.5029 45.9327M54.0892 35.4092L56.5029 45.9327M54.0892 35.4092L63.744 40.6709M61.3303 34.0938L63.744 40.6709M61.3303 34.0938L70.9852 41.9864M68.5715 34.0938L70.9852 41.9864M75.8126 36.7246L70.9852 41.9864M79.4332 43.3018L70.9852 41.9864M79.4332 43.3018L70.9852 49.879M80.64 51.1945L70.9852 49.879M75.8126 59.0871L73.3989 66.9797L69.7783 60.4025M75.8126 59.0871L70.9852 49.879M69.7783 60.4025L63.744 57.7717M69.7783 60.4025L70.9852 49.879M63.744 57.7717V48.5636M58.9166 59.0871V52.5099M51.6755 55.1408L58.9166 52.5099M56.5029 45.9327L63.744 40.6709M56.5029 45.9327L58.9166 52.5099M63.744 40.6709L70.9852 41.9864M70.9852 41.9864L63.744 48.5636M70.9852 49.879L63.744 48.5636M63.744 48.5636L58.9166 52.5099" stroke="#F3F3F3" stroke-width="1.2" stroke-linejoin="round"/>
</svg>
