<svg width="167" height="112" viewBox="0 0 167 112" fill="none" xmlns="http://www.w3.org/2000/svg">
<path d="M44.4445 77.7778H33.3334V100H44.4445V77.7778Z" fill="#DE886D"/>
<path d="M66.6667 77.7778H55.5555V100H66.6667V77.7778Z" fill="#DE886D"/>
<path d="M111.111 77.7778H100V100H111.111V77.7778Z" fill="#DE886D"/>
<path d="M133.333 77.7778H122.222V100H133.333V77.7778Z" fill="#DE886D"/>
<path d="M144.444 0H22.2222V77.7778H144.444V0Z" fill="#DE886D"/>
<path d="M22.2222 33.3333H0V55.5555H22.2222V33.3333Z" fill="#DE886D"/>
<path d="M166.667 33.3333H144.444V55.5555H166.667V33.3333Z" fill="#DE886D"/>
<path d="M77.7778 11.1111H33.3334V33.3333H77.7778V11.1111Z" fill="#111111"/>
<path d="M144.444 11.1111H100V33.3333H144.444V11.1111Z" fill="#111111"/>
<path d="M100 11.1111H77.7778V22.2222H100V11.1111Z" fill="#111111"/>
<path d="M33.3333 11.1111H11.1111V22.2222H33.3333V11.1111Z" fill="#111111"/>
<path d="M155.556 11.1111H144.444V22.2222H155.556V11.1111Z" fill="#111111"/>
<path d="M55.5556 11.1111H44.4445V22.2222H55.5556V11.1111Z" fill="white"/>
<path opacity="0.5" d="M133.333 100H33.3333V111.111H133.333V100Z" fill="black"/>
</svg>
