<svg width="128" height="128" viewBox="0 0 128 128" fill="none" xmlns="http://www.w3.org/2000/svg">
<path d="M34.0652 80.6919H25.549V97.7245H34.0652V80.6919Z" fill="#DE886D"/>
<path d="M51.0978 80.6919H42.5814V97.7245H51.0978V80.6919Z" fill="#DE886D"/>
<path d="M85.1629 80.6919H76.6467V97.7245H85.1629V80.6919Z" fill="#DE886D"/>
<path d="M102.195 80.6919H93.6792V97.7245H102.195V80.6919Z" fill="#DE886D"/>
<path d="M110.712 21.0779H17.0326V80.692H110.712V21.0779Z" fill="#DE886D"/>
<path d="M17.0326 46.6267H0V63.6593H17.0326V46.6267Z" fill="#DE886D"/>
<path d="M127.745 46.6267H110.712V63.6593H127.745V46.6267Z" fill="#DE886D"/>
<path d="M59.6141 29.5942H25.549V46.6268H59.6141V29.5942Z" fill="#111111"/>
<path d="M110.712 29.5942H76.6467V46.6268H110.712V29.5942Z" fill="#111111"/>
<path d="M76.6467 29.5942H59.6141V38.1105H76.6467V29.5942Z" fill="#111111"/>
<path d="M25.5488 29.5942H8.51624V38.1105H25.5488V29.5942Z" fill="#111111"/>
<path d="M119.229 29.5942H110.712V38.1105H119.229V29.5942Z" fill="#111111"/>
<path d="M42.5815 29.5942H34.0652V38.1105H42.5815V29.5942Z" fill="white"/>
<path opacity="0.5" d="M102.195 97.7246H25.5488V106.241H102.195V97.7246Z" fill="black"/>
</svg>
