<svg width="16" height="16" viewBox="0 0 16 16" fill="none" xmlns="http://www.w3.org/2000/svg">
<path d="M4.25814 10.0864H3.1936V12.2155H4.25814V10.0864Z" fill="#DE886D"/>
<path d="M6.38718 10.0864H5.32263V12.2155H6.38718V10.0864Z" fill="#DE886D"/>
<path d="M10.6453 10.0864H9.58081V12.2155H10.6453V10.0864Z" fill="#DE886D"/>
<path d="M12.7744 10.0864H11.7098V12.2155H12.7744V10.0864Z" fill="#DE886D"/>
<path d="M13.8389 2.63477H2.12903V10.0865H13.8389V2.63477Z" fill="#DE886D"/>
<path d="M2.12907 5.82837H0V7.95744H2.12907V5.82837Z" fill="#DE886D"/>
<path d="M15.9681 5.82837H13.839V7.95744H15.9681V5.82837Z" fill="#DE886D"/>
<path d="M7.45175 3.69922H3.1936V5.82829H7.45175V3.69922Z" fill="#111111"/>
<path d="M13.8389 3.69922H9.58081V5.82829H13.8389V3.69922Z" fill="#111111"/>
<path d="M9.58086 3.69922H7.45178V4.76376H9.58086V3.69922Z" fill="#111111"/>
<path d="M3.19365 3.69922H1.06458V4.76376H3.19365V3.69922Z" fill="#111111"/>
<path d="M14.9036 3.69922H13.839V4.76376H14.9036V3.69922Z" fill="#111111"/>
<path d="M5.32272 3.69922H4.25818V4.76376H5.32272V3.69922Z" fill="white"/>
<path opacity="0.5" d="M12.7744 12.2156H3.1936V13.2801H12.7744V12.2156Z" fill="black"/>
</svg>
