<svg width="48" height="48" viewBox="0 0 48 48" fill="none" xmlns="http://www.w3.org/2000/svg">
<path d="M12.7744 30.2595H9.58081V36.6467H12.7744V30.2595Z" fill="#DE886D"/>
<path d="M19.1617 30.2595H15.968V36.6467H19.1617V30.2595Z" fill="#DE886D"/>
<path d="M31.9361 30.2595H28.7426V36.6467H31.9361V30.2595Z" fill="#DE886D"/>
<path d="M38.3232 30.2595H35.1296V36.6467H38.3232V30.2595Z" fill="#DE886D"/>
<path d="M41.5168 7.9043H6.38721V30.2596H41.5168V7.9043Z" fill="#DE886D"/>
<path d="M6.38722 17.4851H0V23.8723H6.38722V17.4851Z" fill="#DE886D"/>
<path d="M47.9043 17.4851H41.5168V23.8723H47.9043V17.4851Z" fill="#DE886D"/>
<path d="M22.3552 11.0979H9.58081V17.4851H22.3552V11.0979Z" fill="#111111"/>
<path d="M41.5169 11.0979H28.7426V17.4851H41.5169V11.0979Z" fill="#111111"/>
<path d="M28.7426 11.0979H22.3553V14.2915H28.7426V11.0979Z" fill="#111111"/>
<path d="M9.58082 11.0979H3.1936V14.2915H9.58082V11.0979Z" fill="#111111"/>
<path d="M44.7107 11.0979H41.5168V14.2915H44.7107V11.0979Z" fill="#111111"/>
<path d="M15.968 11.0979H12.7744V14.2915H15.968V11.0979Z" fill="white"/>
<path opacity="0.5" d="M38.3232 36.6467H9.58081V39.8403H38.3232V36.6467Z" fill="black"/>
</svg>
